<?xml version="1.0" encoding="UTF-8"?>
<svg width="1200pt" height="1200pt" version="1.1" viewBox="0 0 1200 1200" xmlns="http://www.w3.org/2000/svg">
 <g fill-rule="evenodd" fill="#c084fc" stroke="#c084fc">
  <path d="m675.55 835.38c55.539 2.6484 78.801 11.52 97.215 40.828 13.766 21.91 38.066 33.637 64.867 33.637 43.824 0 79.352-36.172 79.352-79.348 0-57.039-48.598-27.258-48.598-253.56 0-166.5-94.535-294.36-268.37-294.36-173.83 0-268.36 127.86-268.36 294.36 0 226.3-48.598 196.52-48.598 253.56 0 43.176 35.527 79.348 79.352 79.348 26.801 0 51.098-11.727 64.867-33.637 18.414-29.305 41.652-38.176 97.164-40.824 0.007812-20.711 0.023438-47.074 0.023438-47.074s-0.03125-52.699-0.03125-71.098c0-8.6367 30.199-8.6367 30.199 0 0 17.473 0.03125 71.098 0.03125 71.098s-0.015625 25.09-0.023437 46.207c9.3398-0.14062 19.402-0.20312 30.258-0.22656 0.007813-20.531 0.023438-45.98 0.023438-45.98s-0.03125-52.699-0.03125-71.098c0-8.6367 30.199-8.6367 30.199 0 0 17.473 0.03125 71.098 0.03125 71.098s-0.015626 24.914-0.023438 45.98c10.852 0.023438 20.914 0.085938 30.258 0.22656 0.007813-20.57 0.023438-46.207 0.023438-46.207s-0.03125-52.699-0.03125-71.098c0-8.6367 30.199-8.6367 30.199 0 0 17.473 0.03125 71.098 0.03125 71.098s-0.015625 25.785-0.027344 47.07zm-75.547 29.129c-98.242 0-135.18-3.9414-161.08 30.695-18.969 25.367-49.355 44.871-84.523 44.871-56.344 0-102.02-45.676-102.02-102.02 0-71.852 49.074-47.188 49.074-249.8 0-185.25 111.35-328.31 298.55-328.32 187.22 0 298.59 143.07 298.59 328.32 0 202.61 49.074 177.95 49.074 249.8 0 56.348-45.676 102.02-102.02 102.02-35.168 0-65.555-19.504-84.523-44.871-25.902-34.637-62.871-30.695-161.12-30.695zm238.05 22.664c-27.129 0-49.121-21.992-49.121-49.121 0-27.129 21.992-49.121 49.121-49.121 27.129 0 49.121 21.992 49.121 49.121 0 27.129-21.992 49.121-49.121 49.121zm-476.1 0c-27.129 0-49.121-21.992-49.121-49.121 0-27.129 21.992-49.121 49.121-49.121s49.121 21.992 49.121 49.121c0 27.129-21.992 49.121-49.121 49.121z"/>
  <path d="m721.67 605.09c-52.727-13-91.441-24.609-91.441-57.977 0-33.309 21.379-61.742 83.129-60.422 61.746 1.3203 83.129 27.051 83.129 60.422 0 33.367-24.227 70.449-74.816 57.977z"/>
  <path d="m478.33 605.09c52.727-13 91.441-24.609 91.441-57.977 0-33.309-21.383-61.742-83.129-60.422-61.746 1.3203-83.129 27.051-83.129 60.422 0 33.367 24.227 70.449 74.816 57.977z"/>
 </g>
</svg>
